<svg xmlns="http://www.w3.org/2000/svg" viewBox="98.469 90.441 939.698 798.588"><path fill="#290458" d="m56.56,328.86c-11.73-49.34-23.46-98.72-32.15-148.69-5.17-29.74-6.35-66.62,18.92-83.13,13.61-8.9,31.01-8.74,47.26-8.28,176.05,4.97,352.11,9.94,528.16,14.91,24.4.69,51.52,2.53,68.34,20.22,18.1,19.04,17.09,48.7,14.93,74.88-8.59,104.3-17.19,208.61-25.78,312.91-1.98,24.08-4.02,48.44-11.75,71.33-7.73,22.89-21.84,44.53-42.86,56.44-23.2,13.15-51.35,12.93-78.01,12.35-117.44-2.53-234.87-5.06-352.31-7.58-15.35-.33-31.17-.76-45.2-6.99-22.69-10.08-23.47-28.32-28.01-49.44-6.21-28.89-13.68-57.56-20.51-86.3-13.68-57.54-27.35-115.08-41.03-172.62Z" transform="translate(112.759 -26.147) scale(1.31605)"/><g transform="translate(287.082 124.927) scale(1.20514)"><path fill="#C0DEF3" d="m128.01,156.02H.05v-15.28C.05,69.61,57.14,11.82,128.01,10.69v145.34Z"/><rect width="127.96" height="358.83" x=".05" y="160.27" fill="#C0DEF3"/><rect width="127.96" height="358.83" x="132.26" y="160.27" fill="#C0DEF3"/><path fill="#ddd" d="m130.13,10.67c.71,0,1.42,0,2.12.02h-4.24c.7-.02,1.41-.02,2.12-.02Z"/><path fill="#C0DEF3" d="M132.26 156.02V10.69c35.08.56 66.78 15 89.86 38.08 23.54 23.54 38.1 56.06 38.1 91.98v15.28h-127.96zM411.51 156.02h-127.96v-15.28c0-71.13 57.09-128.93 127.96-130.06v145.34z"/><rect width="127.96" height="358.83" x="283.56" y="160.27" fill="#C0DEF3"/><rect width="127.96" height="358.83" x="415.76" y="160.27" fill="#C0DEF3"/><path fill="#C0DEF3" d="m415.76,156.02V10.69c35.08.56,66.78,15,89.86,38.08,23.54,23.54,38.1,56.06,38.1,91.98v15.28h-127.96Z"/></g><g transform="translate(77.748 240.517) scale(.46962)"><rect width="327.24" height="397.27" x="65.36" y="-6.33" fill="#fad0c9" rx="31" ry="31"/><rect width="136.28" height="212.11" x="217.77" y="104.22" fill="#7A7AA5"/><path d="m340.6,171.3h-107.59c-.19,0-.34.15-.34.34v125.83c0,.19.15.34.34.34h107.59c.19,0,.34-.15.34-.34v-125.83c0-.19-.15-.34-.34-.34Zm-79.91,50.33h26.22v25.84h-26.22v-25.84Zm-.67,25.84h-26.59s-.05,0-.08.02v-25.87s.05.02.08.02h26.59v25.84Zm27.57-25.84h25.78v25.84h-25.78v-25.84Zm26.45,0h26.22v25.84h-26.22v-25.84Zm0-.67v-26.29h26.22v26.29h-26.22Zm-.67,0h-25.78v-26.29h25.78v26.29Zm-25.78-26.96v-22.02h25.78v22.02h-25.78Zm-.67,0h-26.22v-22.02h26.22v22.02Zm0,.67v26.29h-26.22v-26.29h26.22Zm-26.9,26.29h-26.59s-.05,0-.08.02v-26.32s.05.02.08.02h26.59v26.29Zm-26.67,27.17s.05.02.08.02h26.59v26.51h-26.67v-26.53Zm27.34.02h26.22v26.51h-26.22v-26.51Zm26.22,27.19v21.8h-26.22v-21.8h26.22Zm.67,0h25.78v21.8h-25.78v-21.8Zm0-.67v-26.51h25.78v26.51h-25.78Zm26.45-26.51h26.22v26.51h-26.22v-26.51Zm26.22-54.15h-26.22v-22.02h26.22v22.02Zm-80.24-22.02v22.02h-26.59s-.05,0-.08.02v-22.04h26.67Zm-26.67,103.36h26.67v21.8h-26.67v-21.8Zm80.69,21.8v-21.8h26.22v21.8h-26.22Z"/><rect width="127.31" height="173.47" x="102.12" y="40.41" fill="#7A7AA5"/><path fill="#b8c2d8" d="m118.03,84.9h19.5v17.98h-24.21v-13.27c0-2.6,2.11-4.71,4.71-4.71Z"/><rect width="123.72" height="163.58" x="118.25" y="185.12" fill="#f2f2f2" rx="11.12" ry="11.12"/><ellipse cx="154.12" cy="58.84" fill="#f90065" rx="11.66" ry="10.34"/><ellipse cx="331.63" cy="122.65" fill="#32ce95" rx="11.66" ry="10.34"/><ellipse cx="286.81" cy="32.77" fill="#32ce95" rx="11.66" ry="10.34"/><ellipse cx="319.98" cy="50.75" fill="#f90065" rx="11.66" ry="10.34"/><rect width="15.24" height="17.68" x="158.15" y="84.9" fill="#112e5b"/><path d="m173.84,103.03h-16.14v-18.58h16.14v18.58Zm-15.24-.9h14.34v-16.78h-14.34v16.78Z"/><rect width="17.03" height="18.13" x="141.12" y="120.7" fill="#112e5b"/><path d="m158.6,139.28h-17.93v-19.03h17.93v19.03Zm-17.03-.9h16.14v-17.23h-16.14v17.23Z"/><path d="m213.73,139.28h-56.03v-18.13h-16.14v18.13h-23.75c-2.72,0-4.94-2.22-4.94-4.95v-44.92c0-2.73,2.22-4.95,4.94-4.95h40.78v17.68h14.34v-17.68h40.78c2.72,0,4.94,2.22,4.94,4.95v44.92c0,2.73-2.22,4.95-4.94,4.95Zm-55.13-.9h55.13c2.23,0,4.04-1.82,4.04-4.05v-44.92c0-2.23-1.81-4.05-4.04-4.05h-39.89v17.68h-16.14v-17.68h-39.89c-2.23,0-4.04,1.82-4.04,4.05v44.92c0,2.24,1.81,4.05,4.04,4.05h22.85v-18.13h17.93v18.13Z"/><rect width=".9" height="18.12" x="157.7" y="102.58"/><rect width=".9" height=".45" x="157.7" y="138.83"/><rect width=".9" height="36.7" x="172.94" y="102.58"/><rect width=".9" height=".45" x="172.94" y="84.45"/><rect width=".9" height="35.05" x="189.08" y="85.35"/><rect width=".9" height="17.98" x="203.43" y="120.4"/><rect width=".9" height=".45" x="140.67" y="138.83"/><rect width=".9" height=".3" x="140.67" y="120.4"/><rect width="60.52" height=".98" x="158.15" y="120.21"/><rect width="27.34" height=".98" x="113.77" y="120.21"/><rect width="45.28" height=".98" x="173.39" y="102.09"/><rect width="44.38" height=".98" x="113.77" y="102.09"/><rect width="75.31" height="4.49" x="142.46" y="216.57" fill="#b8c2d8"/><rect width="95.03" height="4.49" x="132.6" y="232.75" fill="#b8c2d8"/><rect width="95.03" height="4.49" x="136.18" y="248.93" fill="#b8c2d8"/><rect width="95.03" height="4.49" x="136.18" y="265.11" fill="#b8c2d8"/><rect width="41.24" height="4.49" x="136.18" y="313.64" fill="#b8c2d8"/><path d="m361.64,391.61H96.32c-17.44,0-31.63-14.23-31.63-31.71V24.71c0-17.48,14.19-31.71,31.63-31.71h265.33c17.44,0,31.63,14.23,31.63,31.71v335.19c0,17.48-14.19,31.71-31.63,31.71ZM96.32-5.65c-16.7,0-30.29,13.62-30.29,30.36v335.19c0,16.74,13.59,30.36,30.29,30.36h265.33c16.7,0,30.29-13.62,30.29-30.36V24.71c0-16.74-13.59-30.36-30.29-30.36H96.32Z"/></g><g transform="translate(98.62 669.37) scale(.40864)"><rect width="239.6" height="5.6" x="-86.55" y="327.25" transform="rotate(-78.95 33.238 330.047)"/><rect width="5.6" height="239.6" x="288.14" y="210.25" transform="rotate(-11.05 291.025 330.135)"/><rect width="5.6" height="243.38" x="465.72" y="208.36" transform="rotate(-14.94 468.502 330.041)"/><path fill="#7c4b33" d="m17.13-.84h273.81v207.16H-.37V16.65C-.37,7,7.47-.84,17.13-.84Z"/><path fill="#562f20" d="m290.94-.84h186.42c9.65,0,17.49,7.84,17.49,17.49v189.67h-203.91V-.84h0Z"/><rect width="110.92" height="20.16" x="78.06" y="23.79" fill="#562f20"/><rect width="291.3" height="12.32" x="-.37" y="206.32" fill="#ffbc97"/><rect width="203.91" height="12.32" x="290.94" y="206.32" fill="#422117"/><rect width="412.3" height="5.6" x="42.77" y="280.22"/></g><g transform="translate(269.052 526.82) scale(1.05568)"><rect width="571.15" height="176.11" x="56.3" y="17.57" fill="#f7e3d5" rx="38.79" ry="38.79"/><path fill="#7c4b33" d="M74.47 312.11h-12.57c-3.38 0-5.98-2.7-5.55-5.75l10.04-70.04c.36-2.54 2.74-4.43 5.55-4.43h27.63c3.8 0 6.5 3.38 5.32 6.67l-25.1 70.04c-.75 2.1-2.9 3.51-5.32 3.51zM609.29 312.11h12.57c3.38 0 5.98-2.7 5.55-5.75l-10.04-70.04c-.36-2.54-2.74-4.43-5.55-4.43h-27.63c-3.8 0-6.5 3.38-5.32 6.67l25.1 70.04c.75 2.1 2.9 3.51 5.32 3.51z"/><path fill="#ffede1" d="m625.01,250.98H58.74c-25.28,0-46.51-17.3-49.3-40.17l-5.64-46.17c-1.84-15.07,11.12-28.25,27.78-28.25h620.6c16.66,0,29.61,13.18,27.78,28.25l-5.64,46.17c-2.79,22.87-24.03,40.17-49.3,40.17Z"/><rect width="255.5" height=".67" x="214.36" y="135.85"/><rect width="566.02" height=".67" x="58.87" y="250.43"/></g><g transform="translate(121.53 468.338) scale(.4506)"><path fill="#ffbc97" d="m287.13,441.28c.54,0,.8.64.43,1.03-2.51,2.63-6.05,4.26-9.98,4.26H18.73c-7.62,0-13.8-6.17-13.8-13.79v-23.9c0-7.61,6.18-13.79,13.8-13.79h258.86c4.13,0,7.84,1.81,10.36,4.69.21.24.04.61-.27.61h-66.59c-3.99,0-7.22,3.23-7.22,7.22v26.46c0,3.99,3.23,7.22,7.22,7.22h66.03Z"/><path fill="#b8c2d8" d="m305.06,352.28h-47.86v36.56h47.35c-2.46,3.77-6.72,6.25-11.55,6.25H34.13c-7.62,0-13.8-6.17-13.8-13.79v-23.9c0-7.61,6.18-13.79,13.8-13.79h258.86c5.53,0,10.31,3.26,12.51,7.96.15.33-.08.7-.44.7Z"/><rect width="12.04" height="50.51" x="82.44" y="344.1" fill="#ffcc83"/><path fill="#ffcc83" d="m257.21,359.5v22.13c0,3.99,3.23,7.22,7.22,7.22h39.87c-2.49,3.49-6.62,5.77-11.3,5.77h-34.67c-5.14,0-9.31-4.16-9.31-9.3v-31.91c0-5.14,4.17-9.3,9.31-9.3h34.67c5.48,0,10.22,3.13,12.44,7.67.11.23-.06.51-.32.51h-40.69c-3.99,0-7.22,3.23-7.22,7.22Z"/><path d="m293,343.02H34.13c-7.95,0-14.4,6.44-14.4,14.39v23.9c0,7.95,6.45,14.39,14.4,14.39h258.86c5.18,0,9.73-2.75,12.26-6.86h-1.44c-2.38,3.42-6.35,5.65-10.82,5.65H34.13c-7.29,0-13.2-5.9-13.2-13.19v-23.9c0-7.28,5.91-13.19,13.2-13.19h258.86c5.45,0,10.15,3.33,12.16,8.06h0c.63,0,1.04-.67.76-1.23-2.35-4.75-7.26-8.03-12.91-8.03Z"/><rect width="13.48" height="50.51" x="39.59" y="395.58" fill="#ffcc83"/><rect width="65.48" height="50.51" x="75.22" y="395.58" fill="#ffcc83"/><path d="m287.94,441.28c-.17,0-.34.08-.45.21-2.41,2.75-5.96,4.48-9.9,4.48H18.73c-7.29,0-13.2-5.9-13.2-13.19v-23.9c0-7.28,5.91-13.19,13.2-13.19h258.86c4.04,0,7.66,1.82,10.08,4.69h0c.63,0,.96-.75.53-1.22-2.63-2.87-6.42-4.67-10.61-4.67H18.73c-7.95,0-14.4,6.44-14.4,14.39v23.9c0,7.95,6.45,14.39,14.4,14.39h258.86c4.3,0,8.17-1.9,10.81-4.9.34-.39.05-1-.46-1h0Z"/><path fill="#efefef" d="m302.94,352.28v36.56h-38.52c-3.99,0-7.22-3.23-7.22-7.22v-22.13c0-3.98,3.24-7.22,7.22-7.22h38.52Z"/><path d="M302.94 357.95v1.16h-38.52c-.32 0-.58-.26-.58-.58s.26-.58.58-.58h38.52zM302.94 365.65v1.16h-38.52c-.32 0-.58-.26-.58-.58s.26-.58.58-.58h38.52zM302.94 373.35v1.16h-38.52c-.32 0-.58-.26-.58-.58s.26-.58.58-.58h38.52zM302.94 381.04v1.16h-38.52c-.32 0-.58-.26-.58-.58s.26-.58.58-.58h38.52z"/><path fill="#efefef" d="m284.65,400.39v40.89h-63.55c-3.99,0-7.22-3.23-7.22-7.22v-26.46c0-3.98,3.24-7.22,7.22-7.22h63.55Z"/><path d="M284.65 406.54v1.16h-59.7c-.32 0-.58-.26-.58-.58s.26-.58.58-.58h59.7zM284.65 415.2v1.16h-59.7c-.32 0-.58-.26-.58-.58s.26-.58.58-.58h59.7zM284.65 423.86v1.16h-59.7c-.32 0-.58-.26-.58-.58s.26-.58.58-.58h59.7zM284.65 432.52v1.16h-59.7c-.32 0-.58-.26-.58-.58s.26-.58.58-.58h59.7z"/><path fill="#f90065" d="m210.94,106.35s-1.11-19.89-14.37-15.47c-13.26,4.42-2.21,16.57,7.74,18.78,9.95,2.21,6.63-3.31,6.63-3.31Z"/><path fill="#f90065" d="M205.41 106.35s3.32-18.78 15.48-15.47 0 16.57-8.84 16.57-6.63-1.1-6.63-1.1zM202.09 106.35s-16.58-11.05-22.11-1.1 9.95 12.15 15.48 8.84c5.53-3.31 6.63-7.73 6.63-7.73z"/><path fill="#32ce95" d="m182.2,274.28s22.11-35.35,15.48-64.08c-6.63-28.72-17.69-48.61-44.22-48.61s-44.22,29.83-36.48,60.76c7.74,30.93,34.27,55.24,34.27,55.24l30.95-3.31Z"/><path fill="#32ce95" d="m191.04,201.36s-.82-32.9,11.05-47.5c14.37-17.68,34.27-20.99,47.53-6.63,13.26,14.36,2.21,46.4-7.74,58.55-9.95,12.15-33.16,26.51-55.27,22.1-22.11-4.42,4.42-26.51,4.42-26.51Z"/><path fill="#32ce95" d="m227.52,142.81s4.42-30.93-13.26-37.56c-17.69-6.63-29.85,11.05-23.21,25.41,6.63,14.36,24.32,18.78,24.32,18.78l12.16-6.63Z"/><path fill="#7c4b33" d="m129.6,265.44h70.92c4.53,0,8.2,3.67,8.2,8.2v45.68c0,12.94-10.51,23.45-23.45,23.45h-40.42c-12.94,0-23.45-10.51-23.45-23.45v-45.68c0-4.53,3.67-8.2,8.2-8.2Z"/><path d="M168.71 201.45c-.38 0-.72-.26-.81-.64-.73-3.07-.86-6.34-.4-9.45.07-.45.49-.76.94-.7.45.07.77.49.7.94-.43 2.91-.31 5.96.37 8.83.11.45-.17.89-.62 1-.06.02-.13.02-.19.02zM152.39 203.04c-.1 0-.2-.02-.3-.06l-8.46-3.33c-.43-.17-.64-.65-.47-1.07.17-.43.65-.63 1.08-.47l8.46 3.33c.43.17.64.65.47 1.07-.13.33-.44.53-.77.53zM139.64 233.1c-.08 0-.17-.01-.25-.04-3.96-1.27-8.25-1.71-12.39-1.27-.45.06-.86-.28-.91-.74-.05-.45.28-.86.74-.91 4.37-.47 8.89 0 13.07 1.34.44.14.68.61.54 1.04-.11.35-.44.58-.79.58zM162.81 238.33c-.12 0-.23-.02-.34-.07-3.44-1.56-6.37-4.03-8.49-7.16-.26-.38-.16-.89.22-1.15.38-.26.89-.16 1.15.22 1.95 2.87 4.65 5.14 7.81 6.58.42.19.6.68.41 1.1-.14.31-.44.49-.75.49zM218.63 198.54c-.13 0-.26-.03-.38-.09-3.08-1.58-5.65-4.14-7.23-7.22-.21-.41-.05-.91.36-1.12.41-.21.91-.05 1.12.36 1.42 2.77 3.73 5.08 6.51 6.5.41.21.57.71.36 1.12-.15.29-.44.45-.74.45zM229.16 183.48c-.35 0-.68-.23-.79-.58l-2.25-7.19c-.14-.44.11-.9.54-1.04.44-.14.9.11 1.04.54l2.25 7.19c.14.44-.11.9-.54 1.04-.08.03-.17.04-.25.04zM239.85 164.58s-.05 0-.07 0c-.46-.04-.79-.44-.76-.9.2-2.42-.32-4.93-1.48-7.06-.22-.4-.07-.91.33-1.12.41-.22.91-.07 1.12.33 1.31 2.41 1.91 5.25 1.68 7.99-.04.43-.4.76-.82.76zM212.44 158.05c-.19 0-.38-.06-.54-.2-.35-.3-.39-.82-.09-1.17l5.55-6.53c.3-.35.82-.39 1.17-.09.35.3.39.82.09 1.17l-5.55 6.53c-.16.19-.4.29-.63.29zM214.4 125.42c-.44 0-.8-.34-.83-.78l-.59-10.77c-.02-.46.33-.85.78-.87.44-.04.85.33.87.78l.59 10.77c.02.46-.32.85-.78.87-.02 0-.03 0-.05 0zM198.4 126.73c-.21 0-.42-.08-.59-.24l-3.59-3.59c-.32-.32-.32-.85 0-1.17s.85-.32 1.17 0l3.59 3.59c.32.32.32.85 0 1.17-.16.16-.37.24-.59.24zM213.09 137.5c-.17 0-.35-.05-.5-.17-.37-.27-.44-.79-.17-1.16l1.96-2.61c.27-.37.79-.44 1.16-.17.37.27.44.79.17 1.16l-1.96 2.61c-.16.22-.41.33-.66.33zM132.29 181.06c-.08 0-.16-.01-.24-.04-.44-.13-.68-.6-.55-1.04l1.96-6.36c.13-.44.6-.68 1.04-.55.44.13.68.6.55 1.04l-1.96 6.36c-.11.36-.44.58-.79.58zM184.32 235.9s-.08 0-.11 0c-.45-.06-.77-.48-.71-.93l1.01-7.34c.06-.45.48-.78.93-.71.45.06.77.48.71.93l-1.01 7.34c-.06.42-.41.72-.82.72zM162.65 256.92c-.11 0-.22-.02-.33-.07-2.34-1.01-4.92-1.5-7.48-1.4-.47 0-.84-.34-.86-.8-.02-.46.34-.84.8-.86 2.8-.1 5.63.43 8.19 1.54.42.18.62.67.44 1.09-.13.31-.44.5-.76.5z"/><path d="M192.12 183.92s-.07 0-.11 0c-.45-.06-.78-.47-.72-.93 1.72-13.5 5.14-23.47 10.16-29.65 6.28-7.72 13.68-12.89 21.42-14.95.45-.12.9.15 1.01.59.12.44-.15.9-.59 1.01-7.4 1.97-14.51 6.94-20.56 14.39-4.76 5.85-8.14 15.81-9.8 28.81-.05.42-.41.72-.82.72zM198.91 222.42c-.46 0-.83-.37-.83-.83 0-3.96-.42-7.73-1.22-11.2-3.37-14.59-7.43-24.91-12.77-32.47-.26-.37-.18-.89.2-1.15.38-.26.89-.18 1.16.2 5.47 7.74 9.61 18.24 13.03 33.05.83 3.6 1.26 7.49 1.26 11.57 0 .46-.37.83-.83.83h0z"/></g><g transform="translate(801.47 305.157) scale(.59949)"><path fill="#32ce95" d="M132.48 773.94s-28.62-95.45-106.52-92.27c-77.9 3.18-53.26 124.08-26.23 113.74 27.03-10.34 81.42-92.15 106.52-59.66 27.03 35 21.46 44.54 21.46 44.54l4.77-6.36zM159.51 775.53s3.18-97.04 46.1-174.99c42.92-77.95 82.67-64.43 78.69-54.88-3.97 9.54-47.69 108.18-96.18 122.49 0 0-18.28 38.18-23.85 106.59l-4.77.8zM141.22 629.97s94.59-190.1 34.18-208.4c-60.41-18.29-72.34 93.86-71.54 130.45.79 36.59 18.28 134.43 37.36 77.95z"/><path fill="none" stroke="#000" stroke-linecap="round" stroke-linejoin="round" stroke-width="1.21" d="M149.97 767.58s-6.36-186.92-36.57-252.94M147.34 525.97c-11.66 29.63-14.06 67.42-8.5 101.62M194.48 624.4s20.67-39.77 48.49-26.25M99.93 730.19c-5.25-5.35-31.32-17.01-77.15 8.75"/><ellipse cx="63.32" cy="580.26" fill="#ffcc83" rx="13.51" ry="15.51"/><ellipse cx="67.3" cy="649.46" fill="#ffcc83" rx="12.33" ry="9.54" transform="rotate(-55.4 67.319 649.482)"/><ellipse cx="243.89" cy="695.26" fill="#ffcc83" rx="11.53" ry="9.54" transform="rotate(-3.48 243.95 695.383)"/><path fill="none" stroke="#000" stroke-linecap="round" stroke-linejoin="round" stroke-width="1.21" d="m70.48,579.86s15.1,7.95,25.44,38.98c6.12,18.38,37.36,112.15,46.1,156.7"/><path fill="none" stroke="#000" stroke-linecap="round" stroke-linejoin="round" stroke-width="1.21" d="M70.38 644.97c4.55-4.13 11.75-4.22 17.33-1.63 5.58 2.59 9.82 7.37 13.49 12.3 3.67 4.93 7 10.2 11.49 14.4M157.73 768.79c12.51-26.55 32.44-49.54 56.93-65.7 7.51-4.95 16.73-9.41 25.19-6.36"/><path fill="#b8c2d8" d="m255.49,882.52c0,12.19-3.5,23.76-9.79,34.19-7.06,11.72-18.97,18.71-31.68,18.71H75.17c-12.71,0-24.62-6.99-31.68-18.71-6.29-10.43-9.79-21.99-9.79-34.19,0-36.24,30.95-67.06,74.11-78.44l-.03-.1-.34-1.18-8.85-30.1c-2.03-6.93,3.16-13.87,10.37-13.87h71.27c7.21,0,12.4,6.94,10.37,13.87l-8.85,30.1-.34,1.18-.03.1c43.16,11.37,74.11,42.2,74.11,78.44Z"/><path fill="#EFE7E7" d="m181.75,802.8l-.34,1.18h-73.62l-.34-1.18c.06-.02.11-.03.17-.03h73.97c.06,0,.11,0,.17.03Z"/></g><g transform="translate(447.092 349.272) scale(.60573)"><path fill="#040200" d="m122.02,216.48c-.81,0,33.02-20.15,50.73-70.91,17.72-50.77,37.85-50.77,50.73-49.16,12.88,1.61,45.09,8.86,41.87,39.49-3.22,30.62-34.53,84.24-24.92,98.13l-118.42-17.54Z"/><polygon fill="#ECA2BB" points="122.94 201.52 182.41 200.37 248.44 222.93 315.27 253.55 291.12 412.3 72.09 466.29 122.94 201.52"/><rect width="76.63" height="140.56" x="308.97" y="237.64" fill="#ECA2BB" rx="38.31" ry="38.31" transform="rotate(-38.32 347.25 307.912)"/><path fill="#ECA2BB" d="m354.73,288.2s-33.02,5.64-39.46,16.92c-6.44,11.28,4.03,35.46,9.66,49.96,5.64,14.5,19.81,31.18,48.31,24.98,18.52-4.03,77.06-27.46,24.96-81.39-23.35-24.17-43.48-10.48-43.48-10.48Z"/><path fill="#EFC7B1" d="m224.28,243.88c-40.26-4.83-67.64-41.1-67.64-41.1,28.18-4.83,33.82-43.51,33.82-43.51,0,0,2.42-14.5,24.16-9.67,26.66,5.93,26.25,24.44,25.86,28.3-.05.46-.1.71-.1.71,0,0-3.22,16.12-1.61,30.62.23,2.01.57,3.73,1.01,5.2,2.68,9.1,8.66,8.5,8.66,8.5,0,0,16.1,25.79-24.16,20.95Z"/><path d="M240.39 178.61s-3.22 16.12-1.61 30.62c.23 2.01.57 3.73 1.01 5.2-1.25.29-2.66.44-4.23.44-24.16 0-31.4-43.51-31.4-43.51l36.33 6.54c-.05.46-.1.71-.1.71zM338.63 344.61s0 34.65 27.38 31.43c27.38-3.22 56.37-24.98 43.48-53.18-12.88-28.2-70.86 21.76-70.86 21.76zM318.36 340.58c-.28 0-.53-.2-.59-.48-2.85-14.02-3.9-28.38-3.11-42.67.02-.33.32-.6.64-.57.33.02.59.3.57.64-.78 14.19.26 28.44 3.09 42.36.07.33-.14.65-.47.71-.04 0-.08.01-.12.01zM72.09 433.25s4.83 12.89 64.42-48.35c63.44-65.2-7.77-35.58-19.19-25.04-11.41 10.54-54.9 48.41-45.23 73.39z"/><path fill="#EFC7B1" d="m171.9,134.94c3.64-3.89,8.92-5.44,14.18-4.71,7.31-21.81,25-32.25,44.34-27.71,20.94,4.91,35.88,25.49,29.89,51.1-5.99,25.61-13.43,45.77-34.37,40.86-11.73-2.75-25.19-12.77-33.73-25.56-6.77-1.43-14-5.05-18.1-8.9-7.55-7.09-8.54-18.32-2.2-25.07Z"/><path d="m173.72,149.72l-1.2-.95c3.35-4.24,8.02-7.52,13.14-9.24l.49,1.45c-4.84,1.63-9.26,4.73-12.43,8.73Z"/><path fill="#EFE7E7" d="m177.73,144.66c.43,2.39.87,4.77,1.3,7.16"/><rect width="1.53" height="7.27" x="177.61" y="144.6" transform="rotate(-10.3 178.31 148.172)"/><ellipse cx="223.62" cy="142.95" rx="3.4" ry="2.43" transform="rotate(-76.85 223.626 142.95)"/><ellipse cx="248.43" cy="147.93" rx="3.4" ry="2.43" transform="rotate(-76.85 248.429 147.93)"/><path d="M243.82 164.79c-3.96-2.68-6.75-6.91-7.65-11.61-.9-4.7.12-9.66 2.81-13.62l1.27.86c-2.46 3.62-3.4 8.17-2.57 12.47.83 4.3 3.38 8.18 7 10.63l-.86 1.27zM231.38 173.75c-6.66-1.81-11.92-7.6-13.09-14.41l1.51-.26c1.05 6.14 5.98 11.56 11.99 13.19l-.4 1.48z"/><path d="m231.9,195.97c-1.96,0-4-.25-6.14-.75-12.1-2.84-25.42-12.88-34.02-25.62-6.69-1.47-13.96-5.08-18.16-9.03-7.85-7.37-8.85-19.1-2.23-26.16,3.55-3.79,8.71-5.61,14.21-5.02,7.45-21.47,25.06-32.3,45.04-27.62l-.35,1.49c-19.33-4.53-36.38,6.15-43.44,27.21l-.2.6-.63-.09c-5.24-.72-10.17.91-13.51,4.48-6.04,6.44-5.07,17.2,2.17,23.99,4.08,3.84,11.21,7.34,17.74,8.71l.31.06.17.26c8.25,12.37,21.62,22.51,33.27,25.24,3.96.93,7.58.95,10.76.07.03-.01,10.21-4.12,14.6-14.7l.17-.41c2.44-5.87,8.93-21.48,9.12-39.99l1.53.02c-.19,18.8-6.76,34.61-9.23,40.56l-.17.41c-4.65,11.2-15.08,15.39-15.53,15.57-1.73.48-3.55.72-5.45.72Z"/><path fill="#EFC7B1" d="m304,232.6s-14.49,6.45-21.74-8.06l-7.25-14.5s-10.47,9.67-14.49.81c-4.03-8.86-20.13-32.23-7.25-33.84,0,0-2.42-12.09,8.86-10.48,0,0,0-12.89,13.69-5.64,0,0,6.44-10.48,12.88-5.64s38.65,53.18,38.65,53.18c0,0-2.42,24.17-23.35,24.17Z"/><path fill="#EFC7B1" d="m385.86,367.77h0c-21.58,9.68-45.63.63-53.22-20.02l-39.91-114.34c-8.86-21.76,18.52-44.32,33.76-26.15l77.99,97.99c15.98,20.08,6.72,51.15-18.62,62.52Z"/><rect width="77.31" height="227.36" x="63.47" y="197.1" fill="#ECA2BB" rx="38.65" ry="38.65" transform="rotate(19.33 102.127 310.877)"/><path fill="#ECA2BB" d="m217.84,252.74l12.88-29.82,19.33,24.98s-13.69,9.67-32.21,4.83Z"/><path fill="#1B1C1D" d="m410.29,882.9c-19.33,14.5-74.89,6.45-99.85.81-19.33-4.37-47.51-19.34-53.15-32.23-1.21-2.76-2.42,10.48-2.42,10.48l-36.24-12.09,3.22-35.46c-3.22-15.31,3.22-25.79,3.22-25.79,0,0,.03,0,.1.02.97.28,9.4,2.7,21.95,6.28,11.08,4.02,23.14,9.98,27.88,17.87,9.66,16.12,20.13,23.37,44.29,33.84,24.16,10.48,76.5-8.86,63.61-14.5,14.49,3.22,46.7,36.26,27.38,50.77Z"/><path fill="#ECA2BB" d="m238.34,199.14s2.86,17.34-7.61,23.79l17.72,29.82s11.27-15.31,4.83-29.01c-6.44-13.7-14.93-24.6-14.93-24.6Z"/><path fill="#ECA2BB" d="m152.62,201.17l18.96-13.74c2.4-1.74,5.75-1.27,7.57,1.08,7.59,9.77,33.16,33.78,51.58,34.42,0,0,0,26.59-20.94,43.51l-57.17-65.27Z"/><path d="m218.24,261c-.17,0-.34-.07-.46-.21-.22-.25-.19-.63.06-.85,11.74-10.18,12.67-36.37,12.68-36.63,0-.27.19-.5.45-.57.26-.06.53.05.67.28l17.36,29.22c2.06-1.76,9.49-9.5,4.88-26.14-.09-.32.1-.65.42-.74.33-.09.65.1.74.42,2.88,10.41,1.16,17.41-.8,21.45-2.14,4.42-4.96,6.34-5.08,6.42-.14.09-.31.12-.47.09-.16-.04-.3-.14-.39-.28l-16.71-28.12c-.19,2.58-.66,7.38-1.81,12.73-2.3,10.69-6.06,18.36-11.17,22.79-.11.1-.25.15-.4.15Z"/><path fill="#EDEDF5" d="m290.51,428.34l-103.99-12.68c-1.7-.21-3.1-1.47-3.45-3.15-11.22-53.66-3.51-108.94,20.26-165.58.7-1.66,2.41-2.65,4.2-2.43l103.49,12.62c2.67.33,4.27,3.13,3.2,5.6-19.64,45.27-26.16,98.92-19.22,161.18.29,2.58-1.91,4.75-4.48,4.43Z"/><path fill="#8F98A7" d="M291.12 274.91c-.15 0-.31-.01-.47-.03l-68.45-8.86c-1.98-.26-3.39-2.08-3.13-4.06.26-1.99 2.08-3.38 4.06-3.13l68.45 8.86c1.98.26 3.39 2.08 3.13 4.06-.24 1.83-1.8 3.16-3.59 3.16zM285.49 289.41c-.15 0-.31-.01-.47-.03l-68.45-8.86c-1.98-.26-3.39-2.08-3.13-4.06.26-1.99 2.08-3.39 4.06-3.13l68.45 8.86c1.98.26 3.39 2.08 3.13 4.06-.24 1.83-1.8 3.16-3.59 3.16z"/><path d="m221.22,157.84c-.75,0-1.49-.11-2.21-.33-5.2-1.59-7.69-8.58-5.55-15.59,1.02-3.36,2.95-6.24,5.42-8.1,2.53-1.9,5.32-2.52,7.88-1.74,2.55.78,4.53,2.85,5.57,5.84,1.02,2.92,1.01,6.38-.01,9.74h0c-1.02,3.36-2.95,6.24-5.42,8.1-1.81,1.36-3.77,2.07-5.67,2.07Zm3.34-24.87c-1.65,0-3.35.62-4.95,1.82-2.27,1.71-4.04,4.36-4.99,7.48-1.94,6.37.19,12.69,4.75,14.08,2.17.66,4.59.11,6.8-1.55,2.27-1.71,4.04-4.36,4.99-7.48h0c.95-3.12.96-6.31.03-9-.91-2.61-2.61-4.42-4.78-5.08-.6-.18-1.22-.27-1.85-.27Z"/><polygon fill="#8F98A7" points="236.36 517.06 221.87 708.04 338.63 708.04 375.67 466.29 236.36 517.06"/><path d="m247.15,164.29c-.8,0-1.59-.12-2.36-.35-5.18-1.58-7.8-8.13-5.83-14.61.95-3.11,2.8-5.75,5.22-7.43,2.46-1.71,5.22-2.22,7.75-1.45,2.54.77,4.54,2.74,5.63,5.53,1.07,2.74,1.14,5.97.2,9.08h0c-.95,3.11-2.8,5.75-5.22,7.43-1.71,1.19-3.57,1.8-5.39,1.8Zm2.44-23.02c-1.59,0-3.22.54-4.74,1.59-2.21,1.53-3.9,3.95-4.78,6.81-1.78,5.86.48,11.76,5.06,13.16,2.19.67,4.59.21,6.75-1.29,2.21-1.53,3.9-3.95,4.78-6.81h0c.87-2.86.81-5.82-.17-8.32-.96-2.45-2.7-4.17-4.89-4.84-.66-.2-1.33-.3-2.02-.3Z"/><rect width="1.21" height="31.08" x="200.73" y="116.73" transform="rotate(-73.43 201.34 132.274)"/><path fill="#1B1C1D" d="m619.66,629.87c-20.94,26.59-62,45.93-62,45.93-34.63-8.86-52.34,1.61-52.34,1.61l20.94,23.37-37.85,22.56-18.52-24.17c-16.91-14.5-16.1-26.59-16.1-26.59,0,0,19.33,1.61,33.82-10.48,14.49-12.09,62-13.7,70.06-20.15,8.05-6.45,42.68-40.29,26.57-43.51,35.43-12.89,56.37,4.83,35.43,31.43Z"/><rect width="1.21" height="9.73" x="236.16" y="137.88" transform="rotate(-65.54 236.765 142.752)"/><path fill="#8F98A7" d="m75.31,447.75l-8.58,44.74c-7.02,35.42,21.65,67.78,57.63,65.05l59.26-4.5c11.77-.89,23.44-2.92,34.82-6.05l108.9-29.94,60.39,78.97,84.55-59.63-65.37-119.29c-25.4-46.36-80.79-67.26-130.45-49.23l-201.17,79.87Z"/><path fill="#EFC7B1" d="m196.1,341.39s16.1-16.92,27.38-19.34c20.07-4.3,26.66-19.1,32.49-26.83,2.57-3.41,7.05-4.97,11.09-3.59,4.13,1.41,7.55,5.44,4.73,15.92-5.64,20.95-8.05,31.43,10.47,33.04,18.52,1.61,33.02.81,23.35,23.37,0,0,8.86,12.09-8.05,20.15,0,0,7.25,7.25-3.22,14.5-10.47,7.25-87.77,13.7-87.77,13.7,0,0-24.16-3.22-26.57-30.62-2.42-27.4,16.1-40.29,16.1-40.29Z"/><path fill="#EFC7B1" d="m209.79,412.3c-36.39,16.4-78.97,19.88-125.13,15.87-33.04-2.87-53.99-33.7-42.33-62.03h0c7.66-18.62,27.54-30.66,49.33-29.86l118.13,4.31v71.72Z"/><path fill="#ECA2BB" d="m143.75,338.17s-84.54,62.04-71.66,95.08c0,0-24.16-7.25-25.77-16.92-1.15-6.88-8.82-24.78-13.14-34.53-1.86-4.19-1.75-8.99.3-13.09l8.95-17.92c1.49-2.98,4.02-5.3,7.12-6.51,13.45-5.28,51.3-19.27,66.83-15.78,19.04,4.28,27.37,9.68,27.37,9.68Z"/><path fill="#EFC7B1" d="M387.75 596.03s21.17 23.85 47.51 54.8l18.52 21.76s19.33 1.61 33.82-10.48c14.49-12.09 62-13.7 70.06-20.15 8.05-6.45 42.68-40.29 26.57-43.51-16.1-3.22-49.93 1.61-66.03-2.42-16.1-4.03-50.33-56.51-50.33-56.51l-80.12 56.51zM338.63 708.04s-8.86 61.24-.81 76.55c8.05 15.31 32.21 41.9 45.09 47.54 12.88 5.64-39.46 24.98-63.61 14.5-24.16-10.48-34.63-17.73-44.29-33.84-9.66-16.12-49.93-24.17-49.93-24.17 0 0 4.03-15.31 4.03-33.84s-2.45-46.74-2.45-46.74h111.97z"/><path fill="#040200" d="m242.8,115.75s-37.85,24.98-60.39,12.89c0,0,13.69-29.01,33.82-29.82,20.13-.81,36.24,9.67,41.07,18.53,4.83,8.86,4.22,16.33,4.22,16.33,0,0-11.47-5.86-18.71-17.94Z"/><path d="M191.67 246.5c-.17 0-.34-.07-.46-.21l-38.65-44.32c-.22-.25-.19-.63.06-.85s.63-.19.85.06l38.65 44.32c.22.25.19.63-.06.85-.11.1-.26.15-.4.15zM135.3 333.53c-.07 0-.14-.01-.21-.04-.31-.11-.48-.46-.36-.77l17.67-49.04c-.1-1.94-1.86-28.59-24.85-60.8-.19-.27-.13-.65.14-.84.27-.2.65-.13.84.14 12.53 17.55 18.68 33.34 21.63 43.5 3.21 11.03 3.44 17.8 3.45 18.08 0 .08-.01.15-.04.22l-17.72 49.16c-.09.25-.32.4-.57.4zM69.22 362.97c-.17 0-.34-.07-.46-.21-.22-.25-.19-.64.07-.85 21.25-18.07 48.54-27.32 72.98-24.75.33.04.57.33.54.66-.04.33-.34.58-.66.54-24.12-2.54-51.07 6.61-72.07 24.47-.11.1-.25.14-.39.14z"/><path d="M57.59 342.2c-.24 0-.47-.14-.56-.38-.12-.31.03-.66.34-.79 14.66-5.84 27.96-10.81 42.21-12.54 16.4-1.98 31.51 1.16 42.55 8.84.27.19.34.57.15.84-.19.27-.57.34-.84.15-10.79-7.51-25.61-10.58-41.72-8.63-14.1 1.7-27.32 6.65-41.9 12.46-.07.03-.15.04-.22.04zM293.93 366.57c-.28 0-.53-.19-.59-.48-.07-.33.14-.65.46-.72l11.27-2.42c.32-.07.65.14.72.46.07.33-.14.65-.46.72l-11.27 2.42s-.08.01-.13.01zM291.06 385.78c-.28 0-.53-.19-.59-.48-.07-.33.14-.65.46-.72l6.9-1.48c.32-.07.65.14.72.46.07.33-.14.65-.46.72l-6.9 1.48s-.08.01-.13.01zM274.61 210.24c-.23 0-.45-.14-.55-.36l-5.64-12.89c-.13-.31 0-.66.31-.8.3-.13.66 0 .8.31l5.64 12.89c.13.31 0 .66-.31.8-.08.03-.16.05-.24.05zM263.34 178s-.03 0-.05 0l-9.66-.81c-.33-.03-.58-.32-.55-.65.03-.33.33-.58.65-.55l9.66.81c.33.03.58.32.55.65-.03.32-.29.55-.6.55zM270.28 168.17s-.03 0-.05 0l-7.75-.65c-.33-.03-.58-.32-.55-.65.03-.33.33-.57.65-.55l7.75.65c.33.03.58.32.55.65-.03.32-.29.55-.6.55zM279.94 161.39s-.03 0-.05 0l-3.72-.31c-.33-.03-.58-.32-.55-.65s.32-.57.65-.55l3.72.31c.33.03.58.32.55.65-.03.32-.29.55-.6.55zM292.06 234.25c-.3 0-.56-.22-.6-.53-.04-.33.19-.63.52-.68 4.22-.53 8.33-2.05 11.88-4.4.28-.19.65-.11.84.17.18.28.11.65-.17.84-3.7 2.45-7.99 4.04-12.4 4.6-.03 0-.05 0-.08 0zM388.15 596.23c-.18 0-.36-.08-.48-.24l-96.63-125.71c-.2-.26-.15-.64.11-.85.27-.2.64-.15.85.11l96.63 125.71c.2.26.15.64-.11.85-.11.08-.24.13-.37.13z"/><path d="m203.19,551.11c-.3,0-.56-.23-.6-.53-.04-.33.2-.63.53-.67,27.25-3.17,123.09-33.12,124.05-33.42.32-.1.66.08.76.4.1.32-.08.66-.4.76-.97.3-96.91,30.28-124.27,33.47-.02,0-.05,0-.07,0Z"/></g></svg>